<?xml version="1.0" encoding="utf-8"?>
<!-- Generator: Adobe Illustrator 25.2.3, SVG Export Plug-In . SVG Version: 6.00 Build 0)  -->
<svg version="1.1" id="图层_1" xmlns="http://www.w3.org/2000/svg" xmlns:xlink="http://www.w3.org/1999/xlink" x="0px" y="0px"
	 viewBox="0 0 752.21 397.05" style="enable-background:new 0 0 752.21 397.05;" xml:space="preserve">
<style type="text/css">
	.st0{fill:#FFFFFF;}
	.st1{opacity:0.8;fill:#EFEFEF;enable-background:new    ;}
	.st2{opacity:0.6;fill:#FFFFFF;enable-background:new    ;}
	.st3{opacity:0.6;fill:#E5E5E5;enable-background:new    ;}
	.st4{opacity:0.4;fill:#F4F4F4;enable-background:new    ;}
</style>
<g>
	<g>
		<polygon class="st0" points="147.87,150.75 147.87,246.3 175.45,236.86 175.45,160.2 		"/>
		<polygon class="st1" points="175.45,140.78 175.45,160.2 192.86,166.16 192.86,230.89 175.45,236.86 175.45,256.28 202.45,246.54 
			202.45,150.51 		"/>
	</g>
	<polygon class="st2" points="202.45,133.16 202.45,150.51 227.12,159.41 227.12,237.65 202.45,246.54 202.45,263.89 254.12,242.81 
		254.12,154.25 	"/>
	<polygon class="st3" points="192.86,166.16 175.45,160.2 175.45,236.86 192.86,230.89 	"/>
	<polygon class="st4" points="227.12,159.41 202.45,150.51 202.45,246.54 227.12,237.65 	"/>
</g>
<g>
	<g>
		<polygon class="st0" points="325.93,193.41 301.28,147.18 284.35,147.18 284.35,209.22 297,209.22 297,163.74 322.3,209.22 
			338.49,209.22 338.49,147.18 325.93,147.18 		"/>
		<polygon class="st0" points="357.84,169.23 357.83,169.23 357.83,158.26 391.92,158.26 391.92,147.19 357.83,147.19 
			357.83,147.18 344.72,147.18 344.72,176.85 344.72,193.68 344.72,209.22 357.84,209.22 357.84,183.64 392.03,183.64 
			392.03,172.58 357.84,172.58 		"/>
		<polygon class="st0" points="395.84,158.25 412.72,158.25 412.72,209.22 425.93,209.22 425.93,158.25 443.66,158.25 
			443.66,147.18 395.84,147.18 		"/>
		<path class="st0" d="M500.31,172.48c1.71-2.79,2.56-5.8,2.56-9.02c0-2.48-0.53-4.87-1.58-7.16c-1.49-3.35-3.69-5.74-6.6-7.16
			c-2.48-1.3-6.48-1.95-12-1.95h-32.23v62.04h31.49c5.15,0,9.02-0.45,11.63-1.35c2.6-0.9,4.74-2.53,6.42-4.88
			c1.92-2.73,2.88-6.11,2.88-10.14c0-7.01-3.01-11.87-9.02-14.6C496.45,177.19,498.6,175.27,500.31,172.48z M485.38,196.67
			c-0.74,0.62-1.55,1.02-2.42,1.21c-0.87,0.19-2.26,0.28-4.19,0.28h-15.12v-14.42h15.4c3.04,0,5.21,0.43,6.51,1.3
			c1.8,1.18,2.7,3.01,2.7,5.49C488.26,193.13,487.3,195.18,485.38,196.67z M485.38,171.18c-0.81,0.62-1.63,1.02-2.46,1.21
			c-0.84,0.19-2.22,0.28-4.14,0.28h-15.12v-14.42h15.4c3.04,0,5.21,0.43,6.51,1.3c1.8,1.18,2.7,3.01,2.7,5.49
			C488.26,167.64,487.3,169.69,485.38,171.18z"/>
		<path class="st0" d="M533.19,163.27c-7.94,0.06-14.02,2.45-18.23,7.16c-3.78,4.22-5.67,9.49-5.67,15.81
			c0,7.5,1.98,13.21,5.95,17.12c4.28,4.34,10.2,6.51,17.77,6.51c7.32,0,13.08-1.92,17.3-5.77c4.59-4.22,6.88-9.86,6.88-16.93
			c0-6.7-1.83-12.25-5.49-16.65C547.73,165.69,541.56,163.27,533.19,163.27z M533.37,200.39c-4.28,0-7.44-1.67-9.49-5.02
			c-1.24-1.98-1.86-4.87-1.86-8.65c0-9.3,3.75-13.95,11.25-13.95c7.44,0.12,11.16,4.71,11.16,13.77
			C544.44,195.77,540.75,200.39,533.37,200.39z"/>
		<polygon class="st0" points="608.72,163.92 594.02,163.92 584.81,177.32 575.23,163.92 561.28,163.92 577.65,186.81 
			560.63,209.22 575.23,209.22 584.81,196.29 594.02,209.22 608.72,209.22 591.79,186.81 		"/>
	</g>
</g>
<g>
	<path class="st0" d="M283.56,225.69c-0.66,1.23-1.45,2.33-2.22,3.18c-0.49-0.3-1.56-0.88-2.19-1.09c1.51-1.51,2.74-3.83,3.45-6.16
		l2.49,0.46c-0.19,0.6-0.41,1.18-0.68,1.78h6.95v1.83h-3.8c0.52,0.77,0.96,1.59,1.18,2.19l-2.16,0.77
		c-0.25-0.79-0.88-1.97-1.51-2.96H283.56z M292.1,227.22c0.44,0.63,0.85,1.42,1.1,2.08h9.91v4.63h-2.57v-2.63h-17.52v2.63h-2.44
		v-4.63h10.07c-0.25-0.55-0.52-1.12-0.79-1.61L292.1,227.22z M286.24,240.06h14.97v6.79h-2.52v-0.79h-12.46v0.85h-2.57v-14.18h16.1
		v5.72h-13.52V240.06z M286.24,234.64v1.92h11.06v-1.92H286.24z M286.24,241.98v2.13h12.46v-2.13H286.24z M303.73,223.85v1.83h-4.41
		c0.57,0.74,1.12,1.51,1.4,2.08l-2.11,0.93c-0.33-0.79-1.15-2-1.94-3.01h-1.56c-0.49,0.85-1.01,1.62-1.59,2.25
		c-0.44-0.33-1.51-0.9-2.08-1.15c1.23-1.23,2.16-3.2,2.68-5.15l2.46,0.44c-0.16,0.6-0.38,1.18-0.63,1.78H303.73z"/>
	<path class="st0" d="M328.17,241.29c-2.98,1.04-6.16,2.11-8.62,2.9l-0.6-2.6c0.99-0.27,2.19-0.6,3.5-1.01v-6.95h-2.96v-2.35h2.96
		v-5.45h-3.23v-2.35h8.71v2.35h-3.04v5.45h2.6v2.35h-2.6v6.19c0.93-0.3,1.92-0.6,2.85-0.93L328.17,241.29z M344.35,243.67V246
		h-17.49v-2.33h7.94v-3.26h-5.94v-2.3h5.94v-2.82h-5.69v-12.32h14.02v12.32h-5.72v2.82h6.08v2.3h-6.08v3.26H344.35z M331.42,228.1
		h3.59v-2.96h-3.59V228.1z M331.42,233.13h3.59v-3.01h-3.59V233.13z M340.68,225.14h-3.5v2.96h3.5V225.14z M340.68,230.12h-3.5v3.01
		h3.5V230.12z"/>
	<path class="st0" d="M384.06,229.25v2.44h-19.44c-0.03,4.52-0.6,11-3.7,15.22c-0.44-0.52-1.53-1.42-2.14-1.75
		c2.93-3.97,3.2-9.69,3.2-13.82v-7.17c6.49-0.38,13.91-1.15,18.15-2.25l2.11,2.08c-4.82,1.15-11.52,1.89-17.63,2.27v2.98H384.06z
		 M366.56,235.16h15.58v11.63h-2.68v-1.26h-10.35v1.34h-2.55V235.16z M369.11,237.51v5.67h10.35v-5.67H369.11z"/>
	<path class="st0" d="M416.02,224.57c2.57,2.33,5.78,5.69,7.2,7.94l-2.13,1.59c-0.41-0.68-0.96-1.45-1.59-2.25
		c-15.06,0.79-16.81,0.85-18.04,1.29c-0.11-0.52-0.55-1.78-0.82-2.49c0.66-0.11,1.34-0.68,2.25-1.56c0.96-0.9,4.05-4.27,6.05-7.58
		l2.55,1.09c-1.97,2.76-4.3,5.42-6.54,7.55l12.73-0.52c-1.18-1.31-2.44-2.63-3.61-3.72L416.02,224.57z M402.69,235.21h17.74v11.61
		h-2.71v-1.4h-12.46v1.45h-2.57V235.21z M405.26,237.65v5.31h12.46v-5.31H405.26z"/>
	<path class="st0" d="M439.12,235.82h7.23v2.33h-7.23V235.82z"/>
	<path class="st0" d="M467.03,230.83c-1.31,1.42-2.96,2.76-4.49,3.59c-0.27-0.57-0.85-1.42-1.34-1.92c1.78-0.71,3.72-2.19,5.04-3.78
		h-4.63v-2.03h5.42v-4.95h2.33v4.95h5.39v2.03h-4.68c1.34,0.79,3.34,2.05,3.92,2.44l-1.37,1.81c-0.66-0.63-2.05-1.75-3.26-2.66v3.39
		h-2.33V230.83z M471.3,245.01c-0.6-0.46-1.37-0.99-2.25-1.48c-1.89,1.48-4.13,2.49-6.62,3.15c-0.22-0.55-0.71-1.45-1.15-1.92
		c2.11-0.49,4.05-1.26,5.72-2.38c-1.31-0.71-2.74-1.34-4.02-1.86c0.55-0.74,1.09-1.72,1.67-2.71h-2.52v-2.08h3.56
		c0.27-0.6,0.52-1.15,0.68-1.7l2.27,0.44c-0.17,0.41-0.36,0.82-0.55,1.26h4.02l0.41-0.11l1.37,0.55c-0.68,2.35-1.78,4.27-3.2,5.83
		c0.79,0.46,1.56,0.9,2.13,1.31L471.3,245.01z M464.08,226.65c-0.22-0.96-0.9-2.44-1.61-3.53l1.86-0.77
		c0.71,1.04,1.45,2.46,1.7,3.45L464.08,226.65z M467.12,237.81c-0.36,0.66-0.71,1.29-1.04,1.86c0.9,0.38,1.81,0.82,2.71,1.29
		c0.9-0.9,1.67-1.94,2.24-3.15H467.12z M474.23,223.09c-0.82,1.23-1.7,2.55-2.44,3.39l-1.64-0.74c0.66-0.99,1.48-2.49,1.94-3.56
		L474.23,223.09z M484.33,229.27c-0.58,3.97-1.42,7.28-2.82,10.02c1.34,2.33,3.07,4.16,5.23,5.37c-0.57,0.44-1.29,1.37-1.67,1.97
		c-2-1.2-3.61-2.96-4.93-5.04c-1.56,2.22-3.59,4-6.27,5.39c-0.22-0.52-0.93-1.59-1.34-2.08c2.85-1.34,4.9-3.17,6.38-5.64
		c-0.9-1.97-1.64-4.16-2.19-6.57c-0.49,1.15-1.07,2.16-1.67,3.04c-0.38-0.44-1.34-1.23-1.89-1.59c2.13-2.87,3.37-7.42,4-12.21
		l2.33,0.33c-0.22,1.59-0.52,3.15-0.88,4.63h7.5v2.38H484.33z M478.17,229.27c0.46,2.63,1.15,5.09,2.05,7.34
		c0.79-2.14,1.37-4.54,1.75-7.34H478.17z"/>
	<path class="st0" d="M525.55,238.77h-10.38v5.12c0,1.42-0.36,2.14-1.48,2.52c-1.09,0.41-2.68,0.44-4.93,0.44
		c-0.16-0.74-0.68-1.89-1.09-2.54c1.72,0.05,3.61,0.05,4.13,0.03c0.49,0,0.66-0.14,0.66-0.52v-5.04h-10.38v-2.44h10.38v-1.59
		c1.4-0.68,2.9-1.75,4.13-2.79h-9.96v-2.35h12.54l0.57-0.14l1.72,1.31c-1.67,1.7-3.97,3.48-6.3,4.82v0.74h10.38V238.77z
		 M504.83,230.31h-2.49v-5.86h10.46c-0.36-0.71-0.79-1.51-1.23-2.14l2.49-0.79c0.68,0.9,1.37,2.03,1.75,2.93h9.5v5.86h-2.6v-3.45
		h-17.88V230.31z"/>
	<path class="st0" d="M563.59,240.61c0,1.34-0.27,2.11-1.26,2.49c-0.96,0.44-2.44,0.49-4.57,0.47c-0.11-0.71-0.52-1.86-0.85-2.55
		c1.51,0.05,3.01,0.05,3.45,0.03c0.44-0.03,0.58-0.14,0.58-0.49v-7.99h-5.91v14.29h-2.63v-14.29h-5.64v11.22h-2.6v-13.71h8.24v-4.05
		c-3.29,0.16-6.62,0.27-9.69,0.3c-0.03-0.71-0.33-1.7-0.55-2.3c7.56-0.14,16.59-0.68,22.09-1.59l0.99,2.35
		c-2.85,0.44-6.46,0.79-10.21,1.07v4.22h8.57V240.61z"/>
	<path class="st0" d="M585.21,233c0,0.63,0,1.26-0.03,1.92h5.45v11.93h-2.3v-9.66h-3.23c-0.19,3.56-0.77,7.15-2.33,9.8
		c-0.41-0.47-1.26-1.23-1.83-1.56c1.72-3.39,1.94-8.4,1.94-12.4v-10.65h2.33v6.73h2.49v-7.39h2.3v7.39h2.16v2.25h-6.95V233z
		 M605.6,229.79c-0.6,4.74-1.86,8.49-3.7,11.39c1.23,1.59,2.71,2.85,4.46,3.75c-0.58,0.44-1.34,1.37-1.72,2.05
		c-1.64-0.96-3.04-2.22-4.22-3.78c-1.37,1.59-2.9,2.82-4.68,3.78c-0.33-0.66-0.99-1.62-1.51-2.08c1.81-0.85,3.39-2.16,4.76-3.91
		c-1.45-2.6-2.49-5.72-3.2-9.2h-0.16v0.96c0,4.6-0.33,10.4-2.68,14.34c-0.47-0.44-1.42-1.12-2.03-1.45
		c2.03-3.56,2.27-8.92,2.27-12.89v-9.25c3.97-0.27,8.49-0.85,11.31-1.53l1.53,2.19c-2.93,0.66-6.82,1.12-10.4,1.4v3.94h8.02
		l0.44-0.08L605.6,229.79z M597.8,231.79c0.6,2.6,1.45,5.01,2.6,7.12c1.15-2.03,2-4.41,2.55-7.12H597.8z"/>
</g>
</svg>
