<?xml version="1.0" encoding="UTF-8"?>
<svg width="16px" height="18px" viewBox="0 0 16 18" version="1.1" xmlns="http://www.w3.org/2000/svg" xmlns:xlink="http://www.w3.org/1999/xlink">
    <!-- Generator: Sketch 63.1 (92452) - https://sketch.com -->
    <title>形状结合</title>
    <desc>Created with Sketch.</desc>
    <g id="页面-1" stroke="none" stroke-width="1" fill="none" fill-rule="evenodd">
        <g id="生态" transform="translate(-128.000000, -954.000000)" fill="#999999">
            <g id="喇叭icon" transform="translate(120.000000, 948.000000)">
                <g id="分组-4" transform="translate(8.000000, 6.000000)">
                    <path d="M11.4,0.14 C11.6,-0.02 11.9,-0.04 12.14,0.06 C12.38,0.18 12.52,0.42 12.52,0.7 L12.52,0.7 L12.52,17.3 C12.52,17.58 12.38,17.82 12.14,17.94 C12.04,17.98 11.94,18 11.82,18 C11.68,18 11.52,17.94 11.4,17.86 L11.4,17.86 L5.32,13.16 L1.4,13.16 C0.62,13.16 1.09245946e-12,12.54 1.09245946e-12,11.76 L1.09245946e-12,11.76 L1.09245946e-12,6.24 C1.09245946e-12,5.46 0.62,4.84 1.4,4.84 L1.4,4.84 L5.32,4.84 Z M15.3046426,6.22949219 C15.6886426,6.22949219 16.0006426,6.53949219 16.0006426,6.92149219 L16.0006426,6.92149219 L16.0006426,11.0754922 C16.0006426,11.4574922 15.6886426,11.7674922 15.3046426,11.7674922 C14.9206426,11.7674922 14.6086426,11.4574922 14.6086426,11.0754922 L14.6086426,11.0754922 L14.6086426,6.92149219 C14.6086426,6.53949219 14.9206426,6.22949219 15.3046426,6.22949219 Z" id="形状结合"></path>
                </g>
            </g>
        </g>
    </g>
</svg>