<?xml version="1.0" encoding="UTF-8"?>
<svg width="46px" height="27px" viewBox="0 0 46 27" version="1.1" xmlns="http://www.w3.org/2000/svg" xmlns:xlink="http://www.w3.org/1999/xlink">
    <!-- Generator: Sketch 63.1 (92452) - https://sketch.com -->
    <title>形状结合</title>
    <desc>Created with Sketch.</desc>
    <g id="页面-1" stroke="none" stroke-width="1" fill="none" fill-rule="evenodd">
        <g id="视频" transform="translate(-130.000000, -897.000000)" fill="#3B28CC" fill-rule="nonzero">
            <g id="编组-13" transform="translate(130.000000, 880.000000)">
                <g id="编组" transform="translate(0.000000, 17.000000)">
                    <path d="M28.7199031,0.037037037 C29.7902138,0.037037037 30.6574829,1.05475675 30.6574829,2.3091718 L30.6574829,2.3091718 L30.6574829,24.7270999 C30.6574829,25.9822173 29.7896149,26.9992346 28.7199031,26.9992346 L28.7199031,26.9992346 L1.93757975,26.9992346 C0.867868024,26.9992346 0,25.9822173 0,24.7278022 L0,24.7278022 L0,2.3091718 C0,1.05405439 0.867868024,0.037037037 1.93757975,0.037037037 L1.93757975,0.037037037 Z M44.2492904,0.0384106805 C45.2201766,0.0630243591 46,0.867226616 46,1.85614957 L46,1.85614957 L46,25.1822292 C46,26.1711521 45.2201766,26.9753544 44.2492904,26.99997 C44.2193432,27.0006394 44.1899951,26.990104 44.1654384,26.9697355 L44.1654384,26.9697355 L35.4076977,19.797937 C34.986042,19.4523759 34.7410745,18.9326295 34.7410745,18.3840863 L34.7410745,18.3840863 L34.7410745,8.65429249 C34.7410745,8.10504693 34.986042,7.58600286 35.4076977,7.24044171 L35.4076977,7.24044171 L44.1654384,0.0686432393 C44.1899951,0.0489771577 44.2193432,0.0377393966 44.2492904,0.0384106805 Z M23.4547273,6.932 L7.99272727,6.932 L7.99272727,10.712 C9.84672727,10.658 11.6647273,10.622 13.4647273,10.604 L13.4647273,20 L17.9647273,20 L17.9647273,10.604 C19.7647273,10.622 21.5827273,10.658 23.4547273,10.712 L23.4547273,6.932 Z" id="形状结合"></path>
                </g>
            </g>
        </g>
    </g>
</svg>