<?xml version="1.0" encoding="UTF-8"?>
<svg width="42px" height="30px" viewBox="0 0 42 30" version="1.1" xmlns="http://www.w3.org/2000/svg" xmlns:xlink="http://www.w3.org/1999/xlink">
    <!-- Generator: Sketch 63.1 (92452) - https://sketch.com -->
    <title>形状结合</title>
    <desc>Created with Sketch.</desc>
    <g id="页面-1" stroke="none" stroke-width="1" fill="none" fill-rule="evenodd">
        <g id="视频" transform="translate(-130.000000, -1034.000000)" fill="#3B28CC" fill-rule="nonzero">
            <g id="编组-15" transform="translate(130.000000, 1019.000000)">
                <path d="M40.59375,15 C41.3247794,15 41.9254282,15.5581146 41.9935633,16.2710005 L42,16.4063818 L42,43.5936182 C42,44.3247161 41.4423529,44.9254212 40.7291919,44.9935626 L40.59375,45 L1.40625,45 C0.675220588,45 0.0745717993,44.4423007 0.00643674944,43.7290728 L-8.77520279e-13,43.5936182 L-8.77520279e-13,16.4063818 C-8.77520279e-13,15.6757251 0.557647059,15.0746307 1.27080806,15.0064419 L1.40625,15 L40.59375,15 Z M10.8764063,31.4499797 C7.62482979,31.4499797 4.98890625,34.0861504 4.98890625,37.3380317 C4.98890625,40.589913 7.62482979,43.2260837 10.8764063,43.2260837 C14.1279827,43.2260837 16.7639063,40.589913 16.7639063,37.3380317 C16.7639063,34.0861504 14.1279827,31.4499797 10.8764063,31.4499797 Z M10.1603044,36.9138007 C10.3829071,36.6943684 10.7439613,36.6943684 10.9665641,36.9138007 L10.9665641,36.9138007 L12.7348769,38.6567878 L13.8227305,37.5844282 L14.9528018,39.8174246 C15.0346786,39.9792664 15.0024112,40.1745975 14.8727728,40.3023895 L14.8727728,40.3023895 L14.122377,41.0420976 C13.9557804,41.2063215 13.6858426,41.2063215 13.5192459,41.0420976 L13.5192459,41.0420976 L11.9172454,39.462914 L11.9286172,39.4518443 L10.1603044,37.7087171 C10.049003,37.599001 9.99328125,37.4550949 9.99328125,37.311329 C9.99328125,37.1674229 10.049003,37.0235168 10.1603044,36.9138007 Z M9.20536609,33.5723041 C9.28736673,33.4902958 9.42050755,33.4902958 9.50250818,33.5723041 L9.50250818,33.5723041 L13.1699058,37.2401925 C13.2519064,37.3223478 13.2519064,37.4555011 13.1699058,37.5375095 L13.1699058,37.5375095 L12.5275675,38.179908 L10.8145183,36.4666983 C10.6303843,36.282547 10.388938,36.1903978 10.1476386,36.1903978 C9.90633927,36.1903978 9.66503991,36.282547 9.48075891,36.4666983 C9.11249082,36.8350009 9.11249082,37.4322801 9.48075891,37.8005828 L9.48075891,37.8005828 L11.1936611,39.5136455 L10.7813066,39.9260386 C10.699159,40.0081939 10.5660182,40.0081939 10.4840176,39.9260386 L10.4840176,39.9260386 L6.81676694,36.2584441 C6.73461935,36.1764358 6.73461935,36.0431356 6.81676694,35.9611272 L6.81676694,35.9611272 Z M37.633125,18.0082508 L4.43859375,18.0082508 C3.70756434,18.0082508 3.10691555,18.5659501 3.0387805,19.279178 L3.03234375,19.4146326 L3.03234375,29.6071507 C3.03234375,30.8183849 4.44772128,31.4444484 5.34190246,30.6857437 L5.435625,30.5991187 L10.8675,25.1400131 C11.4322059,24.572607 12.3452855,24.5952908 12.8829773,25.1623366 L12.9792187,25.2750258 L20.2167187,34.6921586 C20.6305937,35.2307716 21.3641937,35.3916409 21.9598043,35.0935821 L22.0851562,35.0226584 L29.2284375,30.4894209 C29.6548405,30.2188661 30.1896948,30.1995838 30.630947,30.4294098 L30.7603125,30.5058287 L36.8545312,34.5576148 C37.7532692,35.1553271 38.9436758,34.5585163 39.033916,33.5140095 L39.039375,33.3865675 L39.039375,19.4146326 C39.039375,18.637841 38.4098437,18.0082508 37.633125,18.0082508 Z M30.0379687,21.0216583 C31.6950819,21.0216583 33.0384375,22.3651398 33.0384375,24.0224084 C33.0384375,25.6796769 31.6950819,27.0231584 30.0379687,27.0231584 C28.3808556,27.0231584 27.0375,25.6796769 27.0375,24.0224084 C27.0375,22.3651398 28.3808556,21.0216583 30.0379687,21.0216583 Z" id="形状结合"></path>
            </g>
        </g>
    </g>
</svg>