<?xml version="1.0" encoding="UTF-8"?>
<svg width="10px" height="16px" viewBox="0 0 10 16" version="1.1" xmlns="http://www.w3.org/2000/svg" xmlns:xlink="http://www.w3.org/1999/xlink">
    <!-- Generator: Sketch 63.1 (92452) - https://sketch.com -->
    <title>路径</title>
    <desc>Created with Sketch.</desc>
    <g id="页面-1" stroke="none" stroke-width="1" fill="none" fill-rule="evenodd">
        <g id="生态" transform="translate(-1780.000000, -956.000000)" fill="#AAAAAA" fill-rule="nonzero">
            <g id="编组备份-5" transform="translate(1785.000000, 964.000000) scale(-1, 1) translate(-1785.000000, -964.000000) translate(1780.000000, 956.000000)">
                <path d="M0.203303783,7.50881038 L7.44436838,0.212964484 C7.68146907,-0.0262705771 8.05705192,-0.0690393526 8.3435962,0.110566644 L8.46903197,0.212964484 L9.79669622,1.54893627 C10.0677679,1.82228187 10.0677679,2.25796991 9.79669622,2.53131551 L4.61310397,7.75520517 C4.47756812,7.89187798 4.47756812,8.10972199 4.61310397,8.2463948 L9.79669622,13.4686845 C10.0677679,13.7420301 10.0677679,14.1777181 9.79669622,14.4510637 L8.46903197,15.7870355 C8.23193128,16.0262706 7.85634843,16.0690394 7.56980415,15.8894334 L7.44436838,15.7870355 L0.203303783,8.49118962 C-0.0677679275,8.21784402 -0.0677679275,7.78215598 0.203303783,7.50881038 L0.203303783,7.50881038 Z" id="路径"></path>
            </g>
        </g>
    </g>
</svg>