<?xml version="1.0" encoding="UTF-8"?>
<svg width="18px" height="18px" viewBox="0 0 18 18" version="1.1" xmlns="http://www.w3.org/2000/svg" xmlns:xlink="http://www.w3.org/1999/xlink">
    <!-- Generator: Sketch 63.1 (92452) - https://sketch.com -->
    <title>路径 1</title>
    <desc>Created with Sketch.</desc>
    <g id="页面-1" stroke="none" stroke-width="1" fill="none" fill-rule="evenodd">
        <g id="开发者" transform="translate(-801.000000, -1361.000000)" fill="#E5E5E5">
            <g id="编组备份" transform="translate(801.000000, 1361.000000)">
                <g id="确认前">
                    <path d="M18,9 C18,4.035 13.965,0 9,0 C4.035,0 0,4.035 0,9 C0,13.965 4.035,18 9,18 C13.965,18 18,13.965 18,9 Z M7.665,12.825 C7.92,12.825 8.16,12.72 8.34,12.54 L13.995,6.855 C14.235,6.615 14.325,6.27 14.235,5.94 C14.16,5.625 13.905,5.37 13.575,5.28 C13.26,5.19 12.915,5.295 12.675,5.52 L7.62,10.5 L5.37,8.25 C4.995,7.89 4.395,7.89 4.035,8.265 C3.66,8.64 3.675,9.24 4.035,9.6 L6.99,12.54 C7.17,12.72 7.41,12.825 7.665,12.825 Z" id="路径-1"></path>
                </g>
            </g>
        </g>
    </g>
</svg>