<?xml version="1.0" encoding="UTF-8"?>
<svg width="24px" height="18px" viewBox="0 0 24 18" version="1.1" xmlns="http://www.w3.org/2000/svg" xmlns:xlink="http://www.w3.org/1999/xlink">
    <!-- Generator: Sketch 63.1 (92452) - https://sketch.com -->
    <title>形状</title>
    <desc>Created with Sketch.</desc>
    <g id="页面-1" stroke="none" stroke-width="1" fill="none" fill-rule="evenodd">
        <g id="首页备份" transform="translate(-167.000000, -158.000000)" fill="#3B28CC" fill-rule="nonzero">
            <g id="编组" transform="translate(167.000000, 158.000000)">
                <path d="M18.7223387,4.10656503 L21.4042238,2.60658652 C21.7744994,2.39945935 22.2480138,2.52237152 22.4617739,2.88109974 L22.848889,3.53060759 C23.0626733,3.88933581 22.9357964,4.34805323 22.5654966,4.55511008 L19.8836114,6.05513547 C19.5133358,6.26226264 19.0398456,6.13935046 18.8260613,5.78062224 L18.4389462,5.13111439 C18.2251619,4.77238617 18.3520389,4.3136922 18.7223387,4.10661191 L18.7223387,4.10656503 Z M19.8836114,11.9447942 L22.5654966,13.4447962 C22.9357722,13.6518999 23.0626491,14.1105939 22.8488648,14.4692987 L22.4617981,15.1188299 C22.2480138,15.4775347 21.7745236,15.6004469 21.404248,15.3933197 L18.7223629,13.8933881 C18.3520631,13.6862844 18.2252103,13.2275904 18.4389946,12.8688856 L18.8261097,12.2193543 C19.0398698,11.8606261 19.51336,11.7377139 19.8836598,11.9447942 L19.8836114,11.9447942 Z M19.3548364,7.89338028 L23.225794,7.89338028 C23.6533868,7.89338028 24,8.22916208 24,8.64336954 L24,9.39340567 C24,9.80761313 23.6533868,10.1433949 23.225794,10.1433949 L19.3548364,10.1433949 C18.9272677,10.1433949 18.5806545,9.80761313 18.5806545,9.39338028 L18.5806545,8.64336954 C18.5806545,8.22916208 18.9272677,7.89338028 19.3548364,7.89338028 L19.3548364,7.89338028 Z M3.09677575,11.2499796 C3.09677575,11.2499796 3.09677575,11.2499796 3.09677575,11.2499796 C1.38647698,11.2499796 0,9.90680541 0,8.24994824 C0,6.59309889 1.38647698,5.24994824 3.09677575,5.24994824 C3.4991811,5.24994824 3.82539509,5.57616223 3.82539509,5.97856757 C3.82539509,5.99329881 3.82494833,6.00802666 3.82405544,6.02273081 L3.53148188,10.8408286 C3.51756439,11.0707018 3.32706994,11.2499796 3.09677575,11.2499796 Z M9.20828305,4.33234934 C10.7681308,3.95458715 12.1568728,3.09128653 13.1612849,1.87499658 L14.2447717,0.562948996 C14.5386154,0.207133539 14.9834827,0 15.4538532,0 C15.8979913,-8.15868549e-17 16.2580364,0.360045111 16.2580364,0.804183263 L16.2580364,15.8283069 C16.2580364,16.1992727 15.9573092,16.5 15.5863433,16.5 L15.5863433,16.5 L15.5863433,16.5 C15.0424559,16.5 14.5384457,16.2235614 14.258611,15.7717598 L13.2082226,14.0758109 C12.6824513,13.2269031 11.8301027,12.615105 10.8386909,12.3750103 L10.1379158,12.2052911 C9.72312196,12.1048097 9.30276334,12.349134 9.19906488,12.7509893 C9.1915156,12.7802552 9.18579527,12.8099355 9.18193503,12.8398686 L8.60089944,17.3430152 C8.55248585,17.718338 8.22314767,18 7.83271788,18 L5.46623479,18 C5.03866615,18 4.69205295,17.6641948 4.69205295,17.2499639 C4.69205295,17.2352913 4.69248845,17.2205953 4.69338366,17.2059461 L5.35256812,6.34987623 C5.39234419,5.69537595 5.86622148,5.14173209 6.52276872,4.98272443 L9.20828305,4.33234934 Z" id="形状"></path>
            </g>
        </g>
    </g>
</svg>