<?xml version="1.0" encoding="UTF-8"?>
<svg width="20px" height="20px" viewBox="0 0 20 20" version="1.1" xmlns="http://www.w3.org/2000/svg" xmlns:xlink="http://www.w3.org/1999/xlink">
    <!-- Generator: Sketch 63.1 (92452) - https://sketch.com -->
    <title>形状</title>
    <desc>Created with Sketch.</desc>
    <g id="页面-1" stroke="none" stroke-width="1" fill="none" fill-rule="evenodd">
        <g id="首页备份" transform="translate(-1027.000000, -2031.000000)" fill="#333333" fill-rule="nonzero" stroke="#333333" stroke-width="0.6">
            <g id="编组-13" transform="translate(793.000000, 2032.000000)">
                <g id="编组-12" transform="translate(235.000000, 0.000000)">
                    <g id="编组" transform="translate(9.000000, 9.000000) scale(-1, 1) translate(-9.000000, -9.000000) ">
                        <path d="M10.5517241,0 C11.3748098,0 12.164184,0.326969505 12.7461935,0.908978955 C13.3282029,1.49098841 13.6551724,2.28036262 13.6551724,3.10344828 L16.7586207,3.10344828 C17.4442156,3.10344828 18,3.65923272 18,4.34482759 L18,16.7586207 C18,17.4442156 17.4442156,18 16.7586207,18 L12.2151724,18 L12.2151724,15.9765517 C12.2154115,15.1005786 11.5502425,14.3677106 10.6783448,14.2833103 L10.5144828,14.2758621 C9.5752178,14.2758621 8.8137931,15.0372868 8.8137931,15.9765517 L8.8137931,18 L4.34482759,18 C3.65923272,18 3.10344828,17.4442156 3.10344828,16.7586207 L3.10344828,13.6551724 C1.38946112,13.6551724 0,12.2657113 0,10.5517241 C0,8.83773698 1.38946112,7.44827586 3.10344828,7.44827586 L3.10344828,4.34482759 C3.10344828,3.65923272 3.65923272,3.10344828 4.34482759,3.10344828 L7.44827586,3.10344828 C7.44827586,1.38946112 8.83773698,0 10.5517241,0 Z M10.5517241,1.44 C9.63310345,1.44 8.88827586,2.18482759 8.88827586,3.10344828 L8.88827586,4.54344828 L4.79172414,4.54344828 C4.65460517,4.54344828 4.54344828,4.65460517 4.54344828,4.79172414 L4.54344828,8.88827586 L3.10344828,8.88827586 C2.18475116,8.88827586 1.44,9.63302702 1.44,10.5517241 C1.44,11.4704213 2.18475116,12.2151724 3.10344828,12.2151724 L4.54344828,12.2151724 L4.54344828,16.3117241 C4.54344828,16.4482759 4.65517241,16.56 4.79172414,16.56 L7.3737931,16.56 L7.3737931,15.9765517 C7.3737931,14.3118621 8.6697931,12.9488276 10.368,12.8445517 L10.5827586,12.8371034 L10.8148966,12.8495172 C12.4259498,13.0043278 13.6555566,14.3580775 13.6551724,15.9765517 L13.6551724,16.56 L16.3117241,16.56 C16.4488431,16.56 16.56,16.4488431 16.56,16.3117241 L16.56,4.79172414 C16.56,4.65460517 16.4488431,4.54344828 16.3117241,4.54344828 L12.2151724,4.54344828 L12.2151724,3.10344828 C12.2151724,2.18482759 11.4703448,1.44 10.5517241,1.44 L10.5517241,1.44 Z" id="形状"></path>
                    </g>
                </g>
            </g>
        </g>
    </g>
</svg>