<?xml version="1.0" standalone="no"?><!DOCTYPE svg PUBLIC "-//W3C//DTD SVG 1.1//EN" "http://www.w3.org/Graphics/SVG/1.1/DTD/svg11.dtd"><svg t="1625549266041" class="icon" viewBox="0 0 1024 1024" version="1.1" xmlns="http://www.w3.org/2000/svg" p-id="2776" xmlns:xlink="http://www.w3.org/1999/xlink" width="128" height="128"><defs><style type="text/css"></style></defs><path d="M616.2 600.9c0 19.2-4.4 36.8-13.3 53-8.8 16.2-20.6 30.2-35.4 42-14.7 11.8-25.1 23.6-30.9 35.4-5.9 11.8-8.8 19.9-8.8 24.3v36.5c0 11-8.9 19.9-19.9 19.9-11 0-19.9-8.9-19.9-19.9V749c0-13.3 3.3-26.1 9.9-38.7 6.6-12.5 18-26.1 34.3-40.9 11.8-10.3 19.9-21 24.3-32.1 4.4-11 6.6-21.7 6.6-32 0-19.1-4.4-33.5-13.3-43.1-8.8-9.6-21.4-14.4-37.6-14.4-16.2 0-29.8 6.3-40.9 18.8-8.6 9.7-13.8 24-15.7 43-1 10.1-9.5 17.8-19.7 17.8h-10.3c-12.2 0-21.5-11-19.8-23 4.2-29.8 14.6-52.7 31.2-68.7 20.6-19.9 45.7-29.8 75.2-29.8 32.4 0 57.8 8.8 76.3 26.5 18.4 17.7 27.7 40.6 27.7 68.5zM507.8 883.5c-13.4 0-24.3-10.9-24.3-24.3v0.4c0-13.4 10.9-24.3 24.3-24.3s24.3 10.9 24.3 24.3v-0.4c0.1 13.4-10.8 24.3-24.3 24.3z" fill="#dbdbdb" p-id="2777"></path><path d="M483.2 194.5c0.2-1.7 0.2-4.1 0.1-6.6H350c2.2 1 4.2 1.7 6 2.2 43.9 19.7 111.8 13.1 127.2 4.4z" fill="#dbdbdb" p-id="2778"></path><path d="M520.4 218.6c17.5-26.3-4.4-105.2-28.5-144.7-26.3-46-59.2-54.8-78.9-52.6-74.5 6.6-131.5 72.3-124.9 149 1.9 17.3 10.5 44.6 55.3 61.4h163.5c5.9-3.6 10.7-8 13.5-13.1z m-37.2-24.1c-15.3 8.8-83.3 15.3-127.1-4.4-8.8-2.2-24.1-11-24.1-21.9-4.4-52.6 35.1-98.6 87.7-103h0c8.8 0 15.3 4.4 24.1 15.3 28.4 32.9 41.6 96.4 39.4 114z" p-id="2779" fill="#dbdbdb"></path><path d="M726.5 172.6c2.2-37.3-8.8-72.3-32.9-100.8-24.1-28.5-57-46-94.2-48.2-19.7-2.2-50.4 4.4-78.9 52.6-24.1 39.5-46 116.2-28.5 144.7 3.1 4.2 7.6 7.8 13 11h169.6c41.6-18.3 50-44.4 51.9-59.3z m-197.3 21.9c-2.2-15.3 11-78.9 39.5-111.8 8.8-11 17.5-15.3 26.3-15.3 24.1 2.2 48.2 13.1 63.6 32.9 15.3 17.5 24.1 43.8 21.9 67.9 0 11-15.3 17.5-24.1 21.9-43.9 17.5-111.9 13.1-127.2 4.4z" p-id="2780" fill="#dbdbdb"></path><path d="M934.1 189.4H86.4c-35 0-63.6 28.6-63.6 63.6v84.8c0 35 28.6 63.6 63.6 63.6H934c35 0 63.6-28.6 63.6-63.6V253c0.1-35-28.6-63.6-63.5-63.6z m21.2 138.2c0 17.2-14.1 31.3-31.3 31.3H96.6c-17.2 0-31.3-14.1-31.3-31.3v-64.5c0-17.2 14.1-31.3 31.3-31.3h827.3c17.2 0 31.3 14.1 31.3 31.3v64.5z" p-id="2781" fill="#dbdbdb"></path><path d="M870.5 359H150c-35 0-63.6 28.6-63.6 63.6v508.6c0 35 28.6 63.6 63.6 63.6h720.5c35 0 63.6-28.6 63.6-63.6V422.5c0-34.9-28.6-63.5-63.6-63.5z m21.2 561.9c0 17.2-14.1 31.3-31.3 31.3H160.2c-17.2 0-31.3-14.1-31.3-31.3V432.7c0-17.2 14.1-31.3 31.3-31.3h700.2c17.2 0 31.3 14.1 31.3 31.3v488.2z" p-id="2782" fill="#dbdbdb"></path></svg>