<?xml version="1.0" encoding="UTF-8"?>
<svg width="20px" height="18px" viewBox="0 0 20 18" version="1.1" xmlns="http://www.w3.org/2000/svg" xmlns:xlink="http://www.w3.org/1999/xlink">
    <!-- Generator: Sketch 63.1 (92452) - https://sketch.com -->
    <title>形状结合</title>
    <desc>Created with Sketch.</desc>
    <g id="页面-1" stroke="none" stroke-width="1" fill="none" fill-rule="evenodd">
        <g id="首页备份" transform="translate(-793.000000, -2032.000000)" fill="#333333" fill-rule="nonzero">
            <g id="编组-13" transform="translate(793.000000, 2032.000000)">
                <g id="编组-11">
                    <g id="编组">
                        <path d="M18.8888889,9.39123197 C19.4521942,9.39123197 19.9263155,9.79961805 19.9922222,10.3414247 L20,10.467328 L20,14.1572612 C20,16.251344 18.1,17.8945426 15.7811111,17.9946195 L15.5555555,18 L4.44444445,18 C2.1,18 0.126666667,16.4224433 0.00555554688,14.3584911 L0,14.1572612 L0,10.467328 C0.000652105181,9.89797269 0.459122768,9.42764195 1.04599425,9.39427511 C1.63286572,9.36090827 2.14501017,9.77605425 2.21444445,10.3414247 L2.22222221,10.467328 L2.22222221,14.1572612 C2.22222221,15.0063009 3.08888888,15.7681769 4.25777779,15.8424275 L4.44444445,15.847808 L15.5555555,15.847808 C16.7555555,15.847808 17.6811111,15.1289759 17.7711111,14.289621 L17.7777778,14.1583373 L17.7777778,10.467328 C17.7777778,9.87301656 18.2752392,9.39123197 18.8888889,9.39123197 Z M10,-3.39284156e-12 C10.5578076,-3.39284156e-12 11.01,0.437942194 11.01,0.978171269 L11.01,0.978171269 L11.01,7.15496235 L11.0111111,7.15603843 L14.9944445,7.15603843 C15.222535,7.15591625 15.4275274,7.29082774 15.5113918,7.49625658 C15.5952562,7.70168542 15.5409506,7.93588628 15.3744445,8.08686148 L15.3744445,8.08686148 L10.5644445,12.4342893 C10.2458464,12.7216266 9.75256166,12.7230331 9.43222221,12.4375176 L9.43222221,12.4375176 L4.54888888,8.09008977 C4.37962771,7.940201 4.32286927,7.70498407 4.40600854,7.49796861 C4.4891478,7.29095315 4.69509367,7.15469577 4.92444445,7.15496235 L4.92444445,7.15496235 L8.99,7.15496235 L8.99,0.978171269 C8.99,0.437942194 9.4421924,-3.39284156e-12 10,-3.39284156e-12 Z" id="形状结合"></path>
                    </g>
                </g>
            </g>
        </g>
    </g>
</svg>