<?xml version="1.0" encoding="UTF-8"?>
<svg width="18px" height="18px" viewBox="0 0 18 18" version="1.1" xmlns="http://www.w3.org/2000/svg" xmlns:xlink="http://www.w3.org/1999/xlink">
    <!-- Generator: Sketch 63.1 (92452) - https://sketch.com -->
    <title>形状</title>
    <desc>Created with Sketch.</desc>
    <g id="页面-1" stroke="none" stroke-width="1" fill="none" fill-rule="evenodd">
        <g id="活动备份" transform="translate(-773.000000, -955.000000)" fill="#FFFFFF" fill-rule="nonzero">
            <g id="编组-14" transform="translate(773.000000, 953.000000)">
                <g id="编组-12">
                    <g id="编组" transform="translate(0.000000, 2.000000)">
                        <path d="M0,15.9 L18,15.9 L18,18 L0,18 L0,15.9 Z M14.163,9.375 L10.0263,13.7376 C9.76965,14.00025 9.40725,14.17095 9,14.17095 C8.59275,14.17095 8.2305,14.00025 7.97805,13.7349 L3.83265,9.37815 C3.61635,9.14325 3.4785,8.8398 3.4785,8.50335 C3.4785,7.7811 4.0968,7.1955 4.85895,7.1955 C4.8696,7.1955 4.87995,7.19685 4.89045,7.19715 L4.89045,7.1889 L7.6194,7.1889 L7.6194,3.98295 C7.6194,3.26025 8.23785,2.67465 8.99985,2.67465 C9.7623,2.67465 10.38045,3.2601 10.38045,3.98295 L10.38045,7.1889 L13.059,7.1889 L13.059,7.1994 C13.0863,7.1979 13.11315,7.1952 13.14105,7.1952 C13.90335,7.1952 14.5215001,7.78095 14.5215001,8.50335 C14.52165,8.8398 14.38365,9.1431 14.163,9.375 Z M6.75,0 L11.25,0 L11.25,7.6125 L6.75,7.6125 L6.75,0 Z" id="形状"></path>
                    </g>
                </g>
            </g>
        </g>
    </g>
</svg>