<?xml version="1.0" encoding="UTF-8"?>
<svg width="18px" height="18px" viewBox="0 0 18 18" version="1.1" xmlns="http://www.w3.org/2000/svg" xmlns:xlink="http://www.w3.org/1999/xlink">
    <!-- Generator: Sketch 63.1 (92452) - https://sketch.com -->
    <title>路径</title>
    <desc>Created with Sketch.</desc>
    <g id="页面-1" stroke="none" stroke-width="1" fill="none" fill-rule="evenodd">
        <g id="活动备份" transform="translate(-1029.000000, -955.000000)" fill="#FFFFFF" fill-rule="nonzero">
            <g id="编组-14" transform="translate(773.000000, 953.000000)">
                <g id="编组-13" transform="translate(256.000000, 1.000000)">
                    <g id="编组" transform="translate(0.000000, 1.000000)">
                        <path d="M7.36489644,0 C8.16192973,0 8.90930916,0.387149589 9.36927207,1.03811596 C9.82923498,1.68908233 9.94450692,2.52287053 9.67841661,3.27422884 L13.0908906,3.27422884 C13.995463,3.27422884 14.727252,4.00607044 14.7272519,4.90943742 L14.7272519,8.32215713 C15.7444305,7.96249174 16.8771942,8.30924307 17.5187975,9.17667969 C18.1604008,10.0441163 18.1604008,11.228842 17.5187975,12.0962786 C16.8771942,12.9637152 15.7444305,13.3104665 14.7272519,12.9508011 L14.7272519,16.3635209 C14.7272519,17.2668878 13.995463,18 13.0908906,18 L9.67968708,18 C10.0383795,16.9829122 9.69124192,15.8508197 8.82407949,15.2096743 C7.95691705,14.568529 6.77287583,14.568529 5.90571339,15.2096743 C5.03855096,15.8508197 4.69141334,16.9829122 5.0501058,18 L1.63636133,18 C0.732623923,18 0,17.2673233 0,16.3635209 L0,12.9508011 C1.01717855,13.3104665 2.14994226,12.9637152 2.79154558,12.0962786 C3.4331489,11.228842 3.4331489,10.0441163 2.79154558,9.17667969 C2.14994226,8.30924307 1.01717855,7.96249174 0,8.32215713 L0,4.90943742 C0,4.00607044 0.733059389,3.27295828 1.63636133,3.27295828 L5.04883535,3.27295828 C4.78355671,2.52127176 4.89976839,1.68756846 5.36049692,1.0370962 C5.82122546,0.386623947 6.56909525,0.000387573624 7.36616691,0.00127056454 L7.36489644,0 Z" id="路径"></path>
                    </g>
                </g>
            </g>
        </g>
    </g>
</svg>