<?xml version="1.0" encoding="UTF-8"?>
<svg width="42px" height="30px" viewBox="0 0 42 30" version="1.1" xmlns="http://www.w3.org/2000/svg" xmlns:xlink="http://www.w3.org/1999/xlink">
    <!-- Generator: Sketch 63.1 (92452) - https://sketch.com -->
    <title>形状</title>
    <desc>Created with Sketch.</desc>
    <g id="页面-1" stroke="none" stroke-width="1" fill="none" fill-rule="evenodd">
        <g id="视频" transform="translate(-131.000000, -1313.000000)" fill="#3B28CC" fill-rule="nonzero">
            <g id="编组-12" transform="translate(131.000000, 1298.000000)">
                <g id="编组-17">
                    <path d="M40.3289172,15.0288361 L1.43442814,15.0288361 C0.66351703,15.0288361 0.0386928819,15.6514186 0.0386928819,16.4185292 L0.0386928819,43.28315 C0.0386928819,44.0507238 0.66351703,44.6728431 1.43442814,44.6728431 L40.3289172,44.6728431 C41.0998283,44.6728431 41.7246525,44.0507238 41.7246525,43.28315 L41.7246525,16.4185292 C41.7246525,15.6514186 41.0998283,15.0288361 40.3289172,15.0288361 Z M5.86588756,40.6770122 C5.86588756,41.1888825 5.44902797,41.6034742 4.9353974,41.6034742 L3.8178787,41.6034742 C3.30424813,41.6034742 2.88738853,41.1888825 2.88738853,40.6770122 L2.88738853,39.5647944 C2.88738853,39.0529241 3.30424813,38.6383324 3.8178787,38.6383324 L4.9353974,38.6383324 C5.44902797,38.6383324 5.86588756,39.0529241 5.86588756,39.5647944 L5.86588756,40.6770122 Z M5.86588756,35.4828025 C5.86588756,35.9942096 5.44902797,36.4092646 4.9353974,36.4092646 L3.8178787,36.4092646 C3.30424813,36.4092646 2.88738853,35.9942096 2.88738853,35.4828025 L2.88738853,34.3705848 C2.88738853,33.8587145 3.30424813,33.4441228 3.8178787,33.4441228 L4.9353974,33.4441228 C5.44902797,33.4441228 5.86588756,33.8587145 5.86588756,34.3705848 L5.86588756,35.4828025 Z M5.86588756,30.2885929 C5.86588756,30.8 5.44902797,31.215055 4.9353974,31.215055 L3.8178787,31.215055 C3.30424813,31.215055 2.88738853,30.8 2.88738853,30.2885929 L2.88738853,29.175912 C2.88738853,28.6645049 3.30424813,28.2494499 3.8178787,28.2494499 L4.9353974,28.2494499 C5.44902797,28.2494499 5.86588756,28.6645049 5.86588756,29.175912 L5.86588756,30.2885929 Z M5.86588756,25.0943833 C5.86588756,25.6057904 5.44902797,26.0208454 4.9353974,26.0208454 L3.8178787,26.0208454 C3.30424813,26.0208454 2.88738853,25.6057904 2.88738853,25.0943833 L2.88738853,23.9817024 C2.88738853,23.4702953 3.30424813,23.0552403 3.8178787,23.0552403 L4.9353974,23.0552403 C5.44902797,23.0552403 5.86588756,23.4702953 5.86588756,23.9817024 L5.86588756,25.0943833 Z M5.86588756,19.8997105 C5.86588756,20.4115808 5.44902797,20.8261726 4.9353974,20.8261726 L3.8178787,20.8261726 C3.30424813,20.8261726 2.88738853,20.4115808 2.88738853,19.8997105 L2.88738853,18.7874928 C2.88738853,18.2760857 3.30424813,17.8610307 3.8178787,17.8610307 L4.9353974,17.8610307 C5.44902797,17.8610307 5.86588756,18.2760857 5.86588756,18.7874928 L5.86588756,19.8997105 Z M29.6347937,31.098784 L13.7620271,37.7924725 C12.8417724,38.1806601 11.8219551,37.5080486 11.8219551,36.5130284 L11.8219551,23.1256514 C11.8219551,22.1301679 12.8417724,21.4575565 13.7620271,21.8457441 L29.6347937,28.5394325 C30.7699917,29.0184134 30.7699917,30.6202664 29.6347937,31.098784 Z M38.6875325,40.6770122 C38.6875325,41.1888825 38.2711382,41.6034742 37.7570424,41.6034742 L36.6399889,41.6034742 C36.1258931,41.6034742 35.7094988,41.1888825 35.7094988,40.6770122 L35.7094988,39.5647944 C35.7094988,39.0529241 36.1258931,38.6383324 36.6399889,38.6383324 L37.7570424,38.6383324 C38.2711382,38.6383324 38.6875325,39.0529241 38.6875325,39.5647944 L38.6875325,40.6770122 L38.6875325,40.6770122 Z M38.6875325,35.4828025 C38.6875325,35.9942096 38.2711382,36.4092646 37.7570424,36.4092646 L36.6399889,36.4092646 C36.1258931,36.4092646 35.7094988,35.9942096 35.7094988,35.4828025 L35.7094988,34.3705848 C35.7094988,33.8587145 36.1258931,33.4441228 36.6399889,33.4441228 L37.7570424,33.4441228 C38.2711382,33.4441228 38.6875325,33.8587145 38.6875325,34.3705848 L38.6875325,35.4828025 L38.6875325,35.4828025 Z M38.6875325,30.2885929 C38.6875325,30.8 38.2711382,31.215055 37.7570424,31.215055 L36.6399889,31.215055 C36.1258931,31.215055 35.7094988,30.8 35.7094988,30.2885929 L35.7094988,29.175912 C35.7094988,28.6645049 36.1258931,28.2494499 36.6399889,28.2494499 L37.7570424,28.2494499 C38.2711382,28.2494499 38.6875325,28.6645049 38.6875325,29.175912 L38.6875325,30.2885929 L38.6875325,30.2885929 Z M38.6875325,25.0943833 C38.6875325,25.6057904 38.2711382,26.0208454 37.7570424,26.0208454 L36.6399889,26.0208454 C36.1258931,26.0208454 35.7094988,25.6057904 35.7094988,25.0943833 L35.7094988,23.9817024 C35.7094988,23.4702953 36.1258931,23.0552403 36.6399889,23.0552403 L37.7570424,23.0552403 C38.2711382,23.0552403 38.6875325,23.4702953 38.6875325,23.9817024 L38.6875325,25.0943833 L38.6875325,25.0943833 Z M38.6875325,19.8997105 C38.6875325,20.4115808 38.2711382,20.8261726 37.7570424,20.8261726 L36.6399889,20.8261726 C36.1258931,20.8261726 35.7094988,20.4115808 35.7094988,19.8997105 L35.7094988,18.7874928 C35.7094988,18.2760857 36.1258931,17.8610307 36.6399889,17.8610307 L37.7570424,17.8610307 C38.2711382,17.8610307 38.6875325,18.2760857 38.6875325,18.7874928 L38.6875325,19.8997105 L38.6875325,19.8997105 Z" id="形状"></path>
                </g>
            </g>
        </g>
    </g>
</svg>