<?xml version="1.0" encoding="UTF-8"?>
<svg width="40px" height="36px" viewBox="0 0 40 36" version="1.1" xmlns="http://www.w3.org/2000/svg" xmlns:xlink="http://www.w3.org/1999/xlink">
    <!-- Generator: Sketch 63.1 (92452) - https://sketch.com -->
    <title>形状</title>
    <desc>Created with Sketch.</desc>
    <g id="页面-1" stroke="none" stroke-width="1" fill="none" fill-rule="evenodd">
        <g id="视频" transform="translate(-130.000000, -752.000000)" fill="#401ED4" fill-rule="nonzero">
            <g id="编组-14" transform="translate(130.000000, 740.000000)">
                <g id="编组" transform="translate(0.000000, 12.000000)">
                    <path d="M25.676276,4.30127413 L25.676276,4.1392572 C25.676276,3.39317368 25.0739755,2.78807175 24.331346,2.78807175 L18.4660437,2.78807175 C17.7234143,2.78807175 17.1211137,3.39317368 17.1211137,4.1392572 L17.1211137,12.9906631 C17.1211137,13.7367467 16.5188132,14.3418486 15.7761838,14.3418486 L15.6140259,14.3418486 C14.8713965,14.3418486 14.269096,14.9469505 14.269096,15.693034 L14.269096,15.8004486 C14.269096,16.5465321 14.8713965,17.151634 15.6140259,17.151634 L15.7761838,17.151634 C16.5188132,17.151634 17.1211137,17.756736 17.1211137,18.5028195 L17.1211137,28.6342487 C17.1211137,29.3803322 17.7234143,29.9854342 18.4660437,29.9854342 L24.3309005,29.9854342 C25.07353,29.9854342 25.6758305,29.3803322 25.6758305,28.6342487 L25.6758305,28.4820781 C25.6758305,27.7359946 25.07353,27.1308927 24.3309005,27.1308927 L21.2833133,27.1308927 C20.5406839,27.1308927 19.9383834,26.5257908 19.9383834,25.7797072 L19.9383834,18.5023719 C19.9383834,17.7562884 20.5406839,17.1511865 21.2833133,17.1511865 L24.3309005,17.1511865 C25.07353,17.1511865 25.6758305,16.5460845 25.6758305,15.800001 L25.6758305,15.6925865 C25.6758305,14.946503 25.07353,14.341401 24.3309005,14.341401 L21.2833133,14.341401 C20.5406839,14.341401 19.9383834,13.7362991 19.9383834,12.9902156 L19.9383834,7.00319746 C19.9383834,6.25711395 20.5406839,5.65201202 21.2833133,5.65201202 L24.3309005,5.65201202 C25.074421,5.65245958 25.676276,5.04735765 25.676276,4.30127413 Z M29.8371391,31.6521498 L38.5517863,31.6521498 C39.2944157,31.6521498 39.8967163,31.0470479 39.8967163,30.3009644 L39.8967163,24.2517354 C39.8967163,23.5056518 39.2944157,22.9005499 38.5517863,22.9005499 L29.8371391,22.9005499 C29.0945097,22.9005499 28.4922092,23.5056518 28.4922092,24.2517354 L28.4922092,30.3009644 C28.4922092,31.0474955 29.0945097,31.6521498 29.8371391,31.6521498 Z M29.8371391,20.0388474 L38.5517863,20.0388474 C39.2944157,20.0388474 39.8967163,19.4337455 39.8967163,18.687662 L39.8967163,12.638433 C39.8967163,11.8923494 39.2944157,11.2872475 38.5517863,11.2872475 L29.8371391,11.2872475 C29.0945097,11.2872475 28.4922092,11.8923494 28.4922092,12.638433 L28.4922092,18.687662 C28.4922092,19.4337455 29.0945097,20.0388474 29.8371391,20.0388474 L29.8371391,20.0388474 Z M29.8371391,8.75987281 L38.5517863,8.75987281 C39.2944157,8.75987281 39.8967163,8.15477088 39.8967163,7.40868737 L39.8967163,1.35990588 C39.8967163,0.613822367 39.2944157,0.00872043857 38.5517863,0.00872043857 L29.8371391,0.00872043857 C29.0945097,0.00872043857 28.4922092,0.613822367 28.4922092,1.35990588 L28.4922092,7.40913493 C28.4922092,8.15521844 29.0945097,8.75987281 29.8371391,8.75987281 Z M35.7305073,35.7137623 L32.724796,35.7137623 C31.9821665,35.7137623 31.379866,35.1086603 31.379866,34.3625768 L31.379866,34.2005599 C31.379866,33.4544764 31.9821665,32.8493744 32.724796,32.8493744 L35.7305073,32.8493744 C36.4731367,32.8493744 37.0754372,33.4544764 37.0754372,34.2005599 L37.0754372,34.3625768 C37.0754372,35.1086603 36.4731367,35.7137623 35.7305073,35.7137623 Z M10.0730392,4.20549617 L1.35616462,4.20549617 C0.613535195,4.20549617 0.0112346637,4.81059809 0.0112346637,5.55668161 L0.0112346637,34.3625768 C0.0112346637,35.1086603 0.613535194,35.7137623 1.35616462,35.7137623 L10.0730392,35.7137623 C10.8156687,35.7137623 11.4179692,35.1086603 11.4179692,34.3625768 L11.4179692,5.55668161 C11.4179692,4.8105981 10.8161142,4.20549617 10.0730392,4.20549617 Z M8.56639694,27.1282073 L2.86280693,27.1282073 L2.86280693,24.2539732 L8.56595145,24.2539732 L8.56595145,27.1282073 L8.56639694,27.1282073 Z M8.56639694,21.3967463 L2.86280693,21.3967463 L2.86280693,18.5225121 L8.56595145,18.5225121 L8.56595145,21.3967463 L8.56639694,21.3967463 Z M8.56639694,15.6728938 L2.86280693,15.6728938 L2.86280693,12.7986596 L8.56595145,12.7986596 L8.56595145,15.6728938 L8.56639694,15.6728938 Z M8.56639694,9.94411815 L2.86280693,9.94411815 L2.86280693,7.06988399 L8.56595145,7.06988399 L8.56595145,9.94411815 L8.56639694,9.94411815 Z" id="形状"></path>
                </g>
            </g>
        </g>
    </g>
</svg>